<mxfile host="app.diagrams.net" agent="Mozilla/5.0 (Macintosh; Intel Mac OS X 10_15_7) AppleWebKit/537.36 (KHTML, like Gecko) Chrome/123.0.0.0 Safari/537.36" version="24.7.7">
  <diagram name="Page-1" id="YwTtVscjcsH_3psiEjac">
    <mxGraphModel dx="925" dy="513" grid="1" gridSize="10" guides="1" tooltips="1" connect="1" arrows="1" fold="1" page="1" pageScale="1" pageWidth="1100" pageHeight="850" math="0" shadow="0">
      <root>
        <mxCell id="0" />
        <mxCell id="1" parent="0" />
        <mxCell id="tyPL9AJ7SFkzfY1_n43V-12" style="edgeStyle=orthogonalEdgeStyle;rounded=0;orthogonalLoop=1;jettySize=auto;html=1;entryX=0.5;entryY=0;entryDx=0;entryDy=0;" edge="1" parent="1" source="tyPL9AJ7SFkzfY1_n43V-2" target="tyPL9AJ7SFkzfY1_n43V-8">
          <mxGeometry relative="1" as="geometry" />
        </mxCell>
        <mxCell id="tyPL9AJ7SFkzfY1_n43V-2" value="&lt;div style=&quot;font-size: 14px;&quot;&gt;&lt;span style=&quot;background-color: initial; font-size: 14px;&quot;&gt;&lt;font style=&quot;font-size: 14px;&quot;&gt;Planning an academic conference requires coordination of various elements, such as venue selection, speaker invitations, and scheduling.&amp;nbsp;&lt;/font&gt;&lt;/span&gt;&lt;/div&gt;" style="rounded=0;whiteSpace=wrap;html=1;align=left;fontFamily=Garamond;fontSize=14;" vertex="1" parent="1">
          <mxGeometry x="360" y="200" width="600" height="40" as="geometry" />
        </mxCell>
        <mxCell id="tyPL9AJ7SFkzfY1_n43V-3" value="Raw text" style="text;html=1;align=center;verticalAlign=middle;resizable=0;points=[];autosize=1;strokeColor=none;fillColor=none;fontFamily=Garamond;fontSize=14;" vertex="1" parent="1">
          <mxGeometry x="270" y="205" width="70" height="30" as="geometry" />
        </mxCell>
        <mxCell id="tyPL9AJ7SFkzfY1_n43V-4" value="lemmatization" style="text;html=1;align=center;verticalAlign=middle;resizable=0;points=[];autosize=1;strokeColor=none;fillColor=none;fontFamily=Garamond;fontSize=14;" vertex="1" parent="1">
          <mxGeometry x="245" y="440" width="100" height="30" as="geometry" />
        </mxCell>
        <mxCell id="tyPL9AJ7SFkzfY1_n43V-5" value="POS tagging" style="text;html=1;align=center;verticalAlign=middle;resizable=0;points=[];autosize=1;strokeColor=none;fillColor=none;fontFamily=Garamond;fontSize=14;" vertex="1" parent="1">
          <mxGeometry x="250" y="385" width="90" height="30" as="geometry" />
        </mxCell>
        <mxCell id="tyPL9AJ7SFkzfY1_n43V-6" value="Stop word removal" style="text;html=1;align=center;verticalAlign=middle;resizable=0;points=[];autosize=1;strokeColor=none;fillColor=none;fontFamily=Garamond;fontSize=14;" vertex="1" parent="1">
          <mxGeometry x="235" y="325" width="130" height="30" as="geometry" />
        </mxCell>
        <mxCell id="tyPL9AJ7SFkzfY1_n43V-7" value="Tokenization" style="text;html=1;align=center;verticalAlign=middle;resizable=0;points=[];autosize=1;strokeColor=none;fillColor=none;fontFamily=Garamond;fontSize=14;" vertex="1" parent="1">
          <mxGeometry x="255" y="265" width="90" height="30" as="geometry" />
        </mxCell>
        <mxCell id="tyPL9AJ7SFkzfY1_n43V-8" value="&lt;div style=&quot;&quot;&gt;&#39;Planning&#39;&lt;font color=&quot;#ff3333&quot;&gt;,&lt;/font&gt; &#39;an&#39;&lt;font color=&quot;#ff3333&quot;&gt;,&lt;/font&gt; &#39;academic&#39;&lt;span style=&quot;color: rgb(255, 51, 51);&quot;&gt;,&lt;/span&gt;&amp;nbsp;&#39;conference&#39;&lt;span style=&quot;color: rgb(255, 51, 51);&quot;&gt;,&lt;/span&gt;&amp;nbsp;&#39;requires&#39;&lt;span style=&quot;color: rgb(255, 51, 51);&quot;&gt;,&lt;/span&gt;&amp;nbsp;&#39;coordination&#39;&lt;span style=&quot;color: rgb(255, 51, 51);&quot;&gt;,&lt;/span&gt;&amp;nbsp;&#39;of&#39;&lt;span style=&quot;color: rgb(255, 51, 51);&quot;&gt;,&lt;/span&gt;&amp;nbsp;&#39;various&#39;&lt;span style=&quot;color: rgb(255, 51, 51);&quot;&gt;,&lt;/span&gt;&amp;nbsp;&#39;elements&#39;&lt;span style=&quot;color: rgb(255, 51, 51);&quot;&gt;,&lt;/span&gt;&amp;nbsp;&#39;,&#39;&lt;span style=&quot;color: rgb(255, 51, 51);&quot;&gt;,&lt;/span&gt;&amp;nbsp;&#39;such&#39;&lt;span style=&quot;color: rgb(255, 51, 51);&quot;&gt;,&lt;/span&gt;&amp;nbsp;&#39;as&#39;&lt;span style=&quot;color: rgb(255, 51, 51);&quot;&gt;,&lt;/span&gt;&amp;nbsp;&#39;venue&#39;,&amp;nbsp;&lt;span style=&quot;background-color: initial;&quot;&gt;&#39;selection&#39;&lt;/span&gt;&lt;span style=&quot;background-color: initial; color: rgb(255, 51, 51);&quot;&gt;,&lt;/span&gt;&lt;/div&gt;&lt;div style=&quot;&quot;&gt;&lt;span style=&quot;background-color: initial; color: rgb(255, 51, 51);&quot;&gt;&amp;nbsp;&lt;/span&gt;&lt;span style=&quot;background-color: initial;&quot;&gt;&#39;,&#39;&amp;nbsp;&lt;/span&gt;&lt;span style=&quot;background-color: initial; color: rgb(255, 51, 51);&quot;&gt;,&lt;/span&gt;&lt;span style=&quot;background-color: initial;&quot;&gt;&amp;nbsp;&#39;speaker&#39;&lt;/span&gt;&lt;span style=&quot;background-color: initial; color: rgb(255, 51, 51);&quot;&gt;,&lt;/span&gt;&lt;span style=&quot;background-color: initial;&quot;&gt;&amp;nbsp;&#39;invitations&#39;&lt;/span&gt;&lt;span style=&quot;background-color: initial; color: rgb(255, 51, 51);&quot;&gt;,&lt;/span&gt;&lt;span style=&quot;background-color: initial;&quot;&gt;&amp;nbsp;&#39;,&#39;&lt;/span&gt;&lt;span style=&quot;background-color: initial; color: rgb(255, 51, 51);&quot;&gt;,&lt;/span&gt;&lt;span style=&quot;background-color: initial;&quot;&gt;&amp;nbsp;&#39;and&#39;&lt;/span&gt;&lt;span style=&quot;background-color: initial; color: rgb(255, 51, 51);&quot;&gt;,&lt;/span&gt;&lt;span style=&quot;background-color: initial;&quot;&gt;&amp;nbsp;&#39;scheduling&#39;&lt;/span&gt;&lt;span style=&quot;background-color: initial; color: rgb(255, 51, 51);&quot;&gt;,&lt;/span&gt;&lt;span style=&quot;background-color: initial;&quot;&gt;&amp;nbsp;&#39;.&#39;&lt;/span&gt;&lt;/div&gt;" style="whiteSpace=wrap;html=1;fontFamily=Garamond;align=left;" vertex="1" parent="1">
          <mxGeometry x="360" y="260" width="600" height="40" as="geometry" />
        </mxCell>
        <mxCell id="tyPL9AJ7SFkzfY1_n43V-9" value="&lt;div&gt;&lt;font face=&quot;Garamond&quot;&gt;&#39;Planning&#39;&lt;/font&gt;&lt;span style=&quot;color: rgb(255, 51, 51); font-family: Garamond;&quot;&gt;,&lt;/span&gt;&lt;font face=&quot;Garamond&quot;&gt;&amp;nbsp;&#39;academic&#39;&lt;/font&gt;&lt;span style=&quot;color: rgb(255, 51, 51); font-family: Garamond;&quot;&gt;,&lt;/span&gt;&lt;font face=&quot;Garamond&quot;&gt;&amp;nbsp;&#39;conference&#39;&lt;/font&gt;&lt;span style=&quot;color: rgb(255, 51, 51); font-family: Garamond;&quot;&gt;,&lt;/span&gt;&lt;font face=&quot;Garamond&quot;&gt;&amp;nbsp;&#39;requires&#39;&lt;/font&gt;&lt;span style=&quot;color: rgb(255, 51, 51); font-family: Garamond;&quot;&gt;,&amp;nbsp;&lt;/span&gt;&lt;font face=&quot;Garamond&quot;&gt;&#39;coordination&#39;&lt;/font&gt;&lt;span style=&quot;color: rgb(255, 51, 51); font-family: Garamond;&quot;&gt;,&lt;/span&gt;&lt;font face=&quot;Garamond&quot;&gt;&amp;nbsp;&#39;various&#39;&lt;/font&gt;&lt;span style=&quot;color: rgb(255, 51, 51); font-family: Garamond;&quot;&gt;,&lt;/span&gt;&lt;font face=&quot;Garamond&quot;&gt;&amp;nbsp;&#39;elements&#39;&lt;/font&gt;&lt;span style=&quot;color: rgb(255, 51, 51); font-family: Garamond;&quot;&gt;,&lt;/span&gt;&lt;font face=&quot;Garamond&quot;&gt;&amp;nbsp;&#39;venue&#39;&lt;/font&gt;&lt;span style=&quot;color: rgb(255, 51, 51); font-family: Garamond;&quot;&gt;,&lt;/span&gt;&lt;font face=&quot;Garamond&quot;&gt;&amp;nbsp;&#39;selection&#39;&lt;/font&gt;&lt;span style=&quot;color: rgb(255, 51, 51); font-family: Garamond;&quot;&gt;,&amp;nbsp;&lt;/span&gt;&lt;font face=&quot;Garamond&quot;&gt;&#39;speaker&#39;&lt;/font&gt;&lt;span style=&quot;color: rgb(255, 51, 51); font-family: Garamond;&quot;&gt;,&lt;/span&gt;&lt;font face=&quot;Garamond&quot;&gt;&amp;nbsp;&#39;invitations&#39;&lt;/font&gt;&lt;span style=&quot;color: rgb(255, 51, 51); font-family: Garamond;&quot;&gt;,&lt;/span&gt;&lt;/div&gt;&lt;div&gt;&lt;font face=&quot;Garamond&quot;&gt;&amp;nbsp;&#39;scheduling&#39;&lt;/font&gt;&lt;/div&gt;" style="whiteSpace=wrap;html=1;align=left;" vertex="1" parent="1">
          <mxGeometry x="360" y="320" width="600" height="40" as="geometry" />
        </mxCell>
        <mxCell id="tyPL9AJ7SFkzfY1_n43V-10" value="&lt;div&gt;&lt;font face=&quot;Garamond&quot;&gt;(&#39;Planning&#39;, &#39;NN&#39;)&lt;/font&gt;&lt;span style=&quot;color: rgb(255, 51, 51); font-family: Garamond;&quot;&gt;,&lt;/span&gt;&lt;font face=&quot;Garamond&quot;&gt;&amp;nbsp;(&#39;academic&#39;, &#39;JJ&#39;)&lt;/font&gt;&lt;span style=&quot;color: rgb(255, 51, 51); font-family: Garamond;&quot;&gt;,&lt;/span&gt;&lt;font face=&quot;Garamond&quot;&gt;&amp;nbsp;(&#39;conference&#39;, &#39;NN&#39;)&lt;/font&gt;&lt;span style=&quot;color: rgb(255, 51, 51); font-family: Garamond;&quot;&gt;,&lt;/span&gt;&lt;font face=&quot;Garamond&quot;&gt;&amp;nbsp;(&#39;requires&#39;, &#39;VBZ&#39;)&lt;/font&gt;&lt;span style=&quot;color: rgb(255, 51, 51); font-family: Garamond;&quot;&gt;,&lt;/span&gt;&lt;font face=&quot;Garamond&quot;&gt;&amp;nbsp;(&#39;coordination&#39;, &#39;NN&#39;)&lt;/font&gt;&lt;span style=&quot;color: rgb(255, 51, 51); font-family: Garamond;&quot;&gt;,&lt;/span&gt;&lt;font face=&quot;Garamond&quot;&gt;&amp;nbsp;(&#39;various&#39;, &#39;JJ&#39;)&lt;/font&gt;&lt;span style=&quot;color: rgb(255, 51, 51); font-family: Garamond;&quot;&gt;,&amp;nbsp;&lt;/span&gt;&lt;font face=&quot;Garamond&quot;&gt;(&#39;elements&#39;, &#39;NNS&#39;)&lt;/font&gt;&lt;span style=&quot;color: rgb(255, 51, 51); font-family: Garamond;&quot;&gt;,&lt;/span&gt;&lt;font face=&quot;Garamond&quot;&gt;&amp;nbsp;(&#39;venue&#39;, &#39;NN&#39;)&lt;/font&gt;&lt;span style=&quot;color: rgb(255, 51, 51); font-family: Garamond;&quot;&gt;,&lt;/span&gt;&lt;font face=&quot;Garamond&quot;&gt;&amp;nbsp;(&#39;selection&#39;, &#39;NN&#39;)&lt;/font&gt;&lt;span style=&quot;color: rgb(255, 51, 51); font-family: Garamond;&quot;&gt;,&lt;/span&gt;&lt;font face=&quot;Garamond&quot;&gt;&amp;nbsp;(&#39;speaker&#39;, &#39;NN&#39;)&lt;/font&gt;&lt;span style=&quot;color: rgb(255, 51, 51); font-family: Garamond;&quot;&gt;,&lt;/span&gt;&lt;font face=&quot;Garamond&quot;&gt;&amp;nbsp;(&#39;invitations&#39;, &#39;NNS&#39;)&lt;/font&gt;&lt;span style=&quot;color: rgb(255, 51, 51); font-family: Garamond;&quot;&gt;,&lt;/span&gt;&lt;font face=&quot;Garamond&quot;&gt;&amp;nbsp;(&#39;scheduling&#39;, &#39;NN&#39;)&lt;/font&gt;&lt;/div&gt;" style="whiteSpace=wrap;html=1;align=left;" vertex="1" parent="1">
          <mxGeometry x="360" y="380" width="600" height="40" as="geometry" />
        </mxCell>
        <mxCell id="tyPL9AJ7SFkzfY1_n43V-11" value="&lt;div&gt;&#39;Planning&#39;&lt;span style=&quot;color: rgb(255, 51, 51);&quot;&gt;,&lt;/span&gt;&amp;nbsp;&#39;academic&#39;&lt;span style=&quot;color: rgb(255, 51, 51);&quot;&gt;,&amp;nbsp;&lt;/span&gt;&#39;conference&#39;&lt;span style=&quot;color: rgb(255, 51, 51);&quot;&gt;,&lt;/span&gt;&amp;nbsp;&#39;require&#39;&lt;span style=&quot;color: rgb(255, 51, 51);&quot;&gt;,&lt;/span&gt;&amp;nbsp;&#39;coordination&#39;&lt;span style=&quot;color: rgb(255, 51, 51);&quot;&gt;,&lt;/span&gt;&amp;nbsp;&#39;various&#39;&lt;span style=&quot;color: rgb(255, 51, 51);&quot;&gt;,&lt;/span&gt;&amp;nbsp;&#39;element&#39;&lt;span style=&quot;color: rgb(255, 51, 51);&quot;&gt;,&lt;/span&gt;&amp;nbsp;&#39;venue&#39;&lt;span style=&quot;color: rgb(255, 51, 51);&quot;&gt;,&lt;/span&gt;&amp;nbsp;&#39;selection&#39;&lt;span style=&quot;color: rgb(255, 51, 51);&quot;&gt;,&lt;/span&gt;&amp;nbsp;&#39;speaker&#39;&lt;span style=&quot;color: rgb(255, 51, 51);&quot;&gt;,&lt;/span&gt;&amp;nbsp;&#39;invitation&#39;&lt;span style=&quot;color: rgb(255, 51, 51);&quot;&gt;,&lt;/span&gt;&lt;/div&gt;&lt;div&gt;&amp;nbsp;&#39;scheduling&#39;&lt;/div&gt;" style="whiteSpace=wrap;html=1;fontFamily=Garamond;align=left;" vertex="1" parent="1">
          <mxGeometry x="360" y="440" width="600" height="40" as="geometry" />
        </mxCell>
        <mxCell id="tyPL9AJ7SFkzfY1_n43V-14" style="edgeStyle=orthogonalEdgeStyle;rounded=0;orthogonalLoop=1;jettySize=auto;html=1;entryX=0.492;entryY=-0.067;entryDx=0;entryDy=0;entryPerimeter=0;" edge="1" parent="1">
          <mxGeometry relative="1" as="geometry">
            <mxPoint x="664" y="300" as="sourcePoint" />
            <mxPoint x="664.04" y="317.32000000000005" as="targetPoint" />
          </mxGeometry>
        </mxCell>
        <mxCell id="tyPL9AJ7SFkzfY1_n43V-15" style="edgeStyle=orthogonalEdgeStyle;rounded=0;orthogonalLoop=1;jettySize=auto;html=1;entryX=0.508;entryY=0.03;entryDx=0;entryDy=0;entryPerimeter=0;" edge="1" parent="1">
          <mxGeometry relative="1" as="geometry">
            <mxPoint x="665.0322580645161" y="360" as="sourcePoint" />
            <mxPoint x="664.8799999999999" y="381.19999999999993" as="targetPoint" />
            <Array as="points" />
          </mxGeometry>
        </mxCell>
        <mxCell id="tyPL9AJ7SFkzfY1_n43V-17" style="edgeStyle=orthogonalEdgeStyle;rounded=0;orthogonalLoop=1;jettySize=auto;html=1;entryX=0.5;entryY=0;entryDx=0;entryDy=0;" edge="1" parent="1" source="tyPL9AJ7SFkzfY1_n43V-10" target="tyPL9AJ7SFkzfY1_n43V-11">
          <mxGeometry relative="1" as="geometry" />
        </mxCell>
      </root>
    </mxGraphModel>
  </diagram>
</mxfile>
